<svg xmlns="http://www.w3.org/2000/svg" viewBox="0 0 800 600" role="img" aria-label="Kids learning together illustration">
  <defs>
    <linearGradient id="bg" x1="0" y1="0" x2="1" y2="1">
      <stop offset="0" stop-color="#ffffff" stop-opacity="0.10" />
      <stop offset="1" stop-color="#ffffff" stop-opacity="0.02" />
    </linearGradient>
  </defs>

  <rect width="800" height="600" fill="url(#bg)" />

  <!-- Simple, neutral illustration (monochrome, low opacity) -->
  <g fill="none" stroke="#ffffff" stroke-opacity="0.18" stroke-width="10" stroke-linecap="round" stroke-linejoin="round">
    <path d="M165 420c30-70 90-110 165-110s135 40 165 110" />
    <path d="M330 320c-14-34-48-58-88-58-52 0-94 40-94 90" />
    <path d="M470 320c14-34 48-58 88-58 52 0 94 40 94 90" />
    <path d="M220 455h360" />
  </g>

  <g fill="#ffffff" opacity="0.12">
    <circle cx="242" cy="265" r="34" />
    <circle cx="558" cy="265" r="34" />
    <circle cx="400" cy="230" r="40" />
  </g>

  <g fill="#ffffff" opacity="0.10">
    <rect x="250" y="360" width="300" height="120" rx="18" />
    <rect x="280" y="392" width="240" height="14" rx="7" />
    <rect x="280" y="420" width="200" height="14" rx="7" />
  </g>
</svg>
